<svg width="1332" height="217" viewBox="0 0 1332 217" fill="none" xmlns="http://www.w3.org/2000/svg">
<path d="M75.953 130.29H130.898L104.168 52.4757H103.574L75.953 130.29ZM80.408 0.203705H128.225L207.524 212.262H159.113L143.075 165.039H63.776L47.144 212.262H0.218L80.408 0.203705ZM203.864 0.203705H246.038V212.262H203.864V0.203705ZM382.464 130.29H437.409L410.679 52.4757H410.085L382.464 130.29ZM386.919 0.203705H434.736L514.035 212.262H465.624L449.586 165.039H370.287L353.655 212.262H306.729L386.919 0.203705ZM509.187 58.7127H549.282V80.0967H550.173C555.519 71.1867 562.449 64.7517 570.963 60.7917C579.477 56.6337 588.189 54.5547 597.099 54.5547C608.385 54.5547 617.592 56.1387 624.72 59.3067C632.046 62.2767 637.788 66.5337 641.946 72.0777C646.104 77.4237 648.975 84.0567 650.559 91.9767C652.341 99.6987 653.232 108.312 653.232 117.816V212.262H611.058V125.538C611.058 112.866 609.078 103.461 605.118 97.3227C601.158 90.9867 594.129 87.8187 584.031 87.8187C572.547 87.8187 564.231 91.2837 559.083 98.2137C553.935 104.946 551.361 116.133 551.361 131.775V212.262H509.187V58.7127ZM775.561 135.042C775.561 128.706 774.967 122.667 773.779 116.925C772.591 110.985 770.512 105.837 767.542 101.481C764.77 96.9267 761.107 93.2637 756.553 90.4917C751.999 87.7197 746.257 86.3337 739.327 86.3337C732.397 86.3337 726.556 87.7197 721.804 90.4917C717.052 93.2637 713.191 96.9267 710.221 101.481C707.449 106.035 705.37 111.282 703.984 117.222C702.796 122.964 702.202 129.003 702.202 135.339C702.202 141.279 702.895 147.219 704.281 153.159C705.667 159.099 707.845 164.445 710.815 169.197C713.983 173.751 717.844 177.513 722.398 180.483C727.15 183.255 732.793 184.641 739.327 184.641C746.257 184.641 751.999 183.255 756.553 180.483C761.305 177.711 765.067 174.048 767.839 169.494C770.611 164.742 772.591 159.396 773.779 153.456C774.967 147.516 775.561 141.378 775.561 135.042ZM776.155 192.66H775.561C770.611 200.976 764.077 207.015 755.959 210.777C748.039 214.341 739.03 216.123 728.932 216.123C717.448 216.123 707.35 213.945 698.638 209.589C689.926 205.035 682.699 198.996 676.957 191.472C671.413 183.75 667.156 174.939 664.186 165.039C661.414 155.139 660.028 144.843 660.028 134.151C660.028 123.855 661.414 113.955 664.186 104.451C667.156 94.7487 671.413 86.2347 676.957 78.9087C682.699 71.5827 689.827 65.7417 698.341 61.3857C706.855 56.8317 716.755 54.5547 728.041 54.5547C737.149 54.5547 745.762 56.5347 753.88 60.4947C762.196 64.2567 768.73 69.8997 773.482 77.4237H774.076V0.203705H816.25V212.262H776.155V192.66ZM827.665 105.936C828.259 96.0357 830.734 87.8187 835.09 81.2847C839.446 74.7507 844.99 69.5037 851.722 65.5437C858.454 61.5837 865.978 58.8117 874.294 57.2277C882.808 55.4457 891.322 54.5547 899.836 54.5547C907.558 54.5547 915.379 55.1487 923.299 56.3367C931.219 57.3267 938.446 59.4057 944.98 62.5737C951.514 65.7417 956.86 70.1967 961.018 75.9387C965.176 81.4827 967.255 88.9077 967.255 98.2137V178.107C967.255 185.037 967.651 191.67 968.443 198.006C969.235 204.342 970.621 209.094 972.601 212.262H929.833C929.041 209.886 928.348 207.51 927.754 205.134C927.358 202.56 927.061 199.986 926.863 197.412C920.131 204.342 912.211 209.193 903.103 211.965C893.995 214.737 884.689 216.123 875.185 216.123C867.859 216.123 861.028 215.232 854.692 213.45C848.356 211.668 842.812 208.896 838.06 205.134C833.308 201.372 829.546 196.62 826.774 190.878C824.2 185.136 822.913 178.305 822.913 170.385C822.913 161.673 824.398 154.545 827.368 149.001C830.536 143.259 834.496 138.705 839.248 135.339C844.198 131.973 849.742 129.498 855.88 127.914C862.216 126.132 868.552 124.746 874.888 123.756C881.224 122.766 887.461 121.974 893.599 121.38C899.737 120.786 905.182 119.895 909.934 118.707C914.686 117.519 918.448 115.836 921.22 113.658C923.992 111.282 925.279 107.916 925.081 103.56C925.081 99.0057 924.289 95.4417 922.705 92.8677C921.319 90.0957 919.339 88.0167 916.765 86.6307C914.389 85.0467 911.518 84.0567 908.152 83.6607C904.984 83.0667 901.519 82.7697 897.757 82.7697C889.441 82.7697 882.907 84.5517 878.155 88.1157C873.403 91.6797 870.631 97.6197 869.839 105.936H827.665ZM925.081 137.121C923.299 138.705 921.022 139.992 918.25 140.982C915.676 141.774 912.805 142.467 909.637 143.061C906.667 143.655 903.499 144.15 900.133 144.546C896.767 144.942 893.401 145.437 890.035 146.031C886.867 146.625 883.699 147.417 880.531 148.407C877.561 149.397 874.888 150.783 872.512 152.565C870.334 154.149 868.552 156.228 867.166 158.802C865.78 161.376 865.087 164.643 865.087 168.603C865.087 172.365 865.78 175.533 867.166 178.107C868.552 180.681 870.433 182.76 872.809 184.344C875.185 185.73 877.957 186.72 881.125 187.314C884.293 187.908 887.56 188.205 890.926 188.205C899.242 188.205 905.677 186.819 910.231 184.047C914.785 181.275 918.151 178.008 920.329 174.246C922.507 170.286 923.794 166.326 924.19 162.366C924.784 158.406 925.081 155.238 925.081 152.862V137.121ZM982.498 0.203705H1024.67V212.262H982.498V0.203705ZM1183.25 212.262H1143.15V190.878H1142.26C1136.91 199.788 1129.98 206.223 1121.47 210.183C1112.96 214.143 1104.24 216.123 1095.33 216.123C1084.05 216.123 1074.74 214.638 1067.42 211.668C1060.29 208.698 1054.65 204.54 1050.49 199.194C1046.33 193.65 1043.36 187.017 1041.58 179.295C1039.99 171.375 1039.2 162.663 1039.2 153.159V58.7127H1081.38V145.437C1081.38 158.109 1083.36 167.613 1087.32 173.949C1091.28 180.087 1098.3 183.156 1108.4 183.156C1119.89 183.156 1128.2 179.79 1133.35 173.058C1138.5 166.128 1141.07 154.842 1141.07 139.2V58.7127H1183.25V212.262ZM1229.25 162.366C1229.25 166.92 1230.14 170.88 1231.92 174.246C1233.9 177.414 1236.37 180.087 1239.34 182.265C1242.31 184.245 1245.68 185.73 1249.44 186.72C1253.4 187.71 1257.46 188.205 1261.62 188.205C1264.59 188.205 1267.66 187.908 1270.83 187.314C1274.19 186.522 1277.16 185.433 1279.74 184.047C1282.51 182.463 1284.78 180.483 1286.57 178.107C1288.35 175.533 1289.24 172.365 1289.24 168.603C1289.24 162.267 1284.98 157.515 1276.47 154.347C1268.15 151.179 1256.47 148.011 1241.42 144.843C1235.28 143.457 1229.25 141.873 1223.31 140.091C1217.56 138.111 1212.42 135.636 1207.86 132.666C1203.31 129.498 1199.64 125.637 1196.87 121.083C1194.1 116.331 1192.71 110.589 1192.71 103.857C1192.71 93.9567 1194.6 85.8387 1198.36 79.5027C1202.32 73.1667 1207.47 68.2167 1213.8 64.6527C1220.14 60.8907 1227.27 58.3167 1235.19 56.9307C1243.11 55.3467 1251.22 54.5547 1259.54 54.5547C1267.86 54.5547 1275.87 55.3467 1283.6 56.9307C1291.52 58.5147 1298.55 61.1877 1304.68 64.9497C1310.82 68.7117 1315.87 73.7607 1319.83 80.0967C1323.99 86.2347 1326.46 94.0557 1327.26 103.56H1287.16C1286.57 95.4417 1283.5 89.9967 1277.95 87.2247C1272.41 84.2547 1265.88 82.7697 1258.35 82.7697C1255.98 82.7697 1253.4 82.9677 1250.63 83.3637C1247.86 83.5617 1245.28 84.1557 1242.91 85.1457C1240.73 86.1357 1238.85 87.6207 1237.26 89.6007C1235.68 91.3827 1234.89 93.8577 1234.89 97.0257C1234.89 100.788 1236.27 103.857 1239.05 106.233C1241.82 108.609 1245.38 110.589 1249.74 112.173C1254.29 113.559 1259.44 114.846 1265.18 116.034C1270.92 117.222 1276.77 118.509 1282.71 119.895C1288.84 121.281 1294.78 122.964 1300.53 124.944C1306.47 126.924 1311.71 129.597 1316.27 132.963C1320.82 136.131 1324.48 140.19 1327.26 145.14C1330.03 149.892 1331.41 155.832 1331.41 162.96C1331.41 173.058 1329.33 181.572 1325.18 188.502C1321.22 195.234 1315.97 200.679 1309.44 204.837C1302.9 208.995 1295.38 211.866 1286.86 213.45C1278.55 215.232 1270.03 216.123 1261.32 216.123C1252.41 216.123 1243.7 215.232 1235.19 213.45C1226.67 211.668 1219.05 208.698 1212.32 204.54C1205.78 200.382 1200.34 194.937 1195.98 188.205C1191.82 181.275 1189.55 172.662 1189.15 162.366H1229.25Z" fill="#2F2F2F"/>
</svg>
