<svg width="1340" height="224" viewBox="0 0 1340 224" fill="none" xmlns="http://www.w3.org/2000/svg">
<path d="M118.973 12.4869L194.904 212.262H148.953L133.263 167.712H59.0126L42.7617 212.262H-2.06858L73.8627 12.4869H118.973ZM122.616 135.77L96.2778 61.52L69.6598 135.77H122.616ZM229.621 12.7671V212.262H189.834V12.7671H229.621ZM404.963 12.4869L480.894 212.262H434.943L419.253 167.712H345.002L328.751 212.262H283.921L359.852 12.4869H404.963ZM408.605 135.77L382.268 61.52L355.65 135.77H408.605ZM610.875 212.262H570.528V127.925C570.528 117.838 568.846 109.993 565.484 104.669C562.122 99.3455 555.397 96.5436 545.871 96.5436C524.857 96.5436 514.49 109.432 514.49 134.649V212.262H474.983V67.6842H512.809V87.8578C524.577 71.887 540.547 63.7615 560.721 63.7615C576.131 63.7615 588.46 68.2446 597.426 77.2106C606.392 86.1767 610.875 99.0653 610.875 115.596V212.262ZM763.047 212.262H725.222V193.769C715.695 208.899 701.126 216.184 681.512 216.184C661.619 216.184 645.648 209.46 633.88 195.45C622.112 181.441 616.228 162.948 616.228 139.413C616.228 116.717 621.832 98.505 633.32 84.7757C644.808 70.7663 660.218 64.0417 679.551 64.0417C688.517 64.0417 696.923 65.7229 704.768 69.6455C712.613 73.288 719.058 78.6115 723.541 85.6163V12.7671H763.047V212.262ZM724.662 139.693C724.662 125.683 721.86 115.036 715.695 107.191C709.531 99.3455 701.126 95.4229 690.478 95.4229C679.551 95.4229 671.145 99.3455 665.261 107.191C659.097 115.036 656.295 125.683 656.295 139.693C656.295 153.702 659.097 164.63 665.261 172.475C671.426 180.32 679.831 184.523 690.478 184.523C701.406 184.523 709.811 180.6 715.695 172.755C721.86 164.91 724.662 153.982 724.662 139.693ZM909.211 212.262H868.584C867.463 208.619 866.342 203.856 865.782 198.252C853.734 210.581 838.043 216.465 818.99 216.465C803.02 216.465 790.411 212.822 781.165 204.977C772.199 197.132 767.436 186.484 767.436 172.755C767.436 166.591 768.276 161.267 769.957 156.504C771.638 152.021 774.16 148.098 777.803 144.736C781.445 141.654 784.807 139.132 788.17 136.891C791.532 134.93 796.015 133.248 801.619 131.847C807.503 130.727 812.266 129.606 815.628 129.046C819.271 128.485 824.314 127.645 830.758 126.804C844.768 125.123 854.014 123.162 858.777 120.92C863.54 118.959 866.062 115.036 866.062 109.432C866.062 96.5436 857.376 90.0993 840.005 90.0993C830.758 90.0993 824.034 91.7804 819.831 95.1427C815.348 98.505 812.546 104.109 811.425 112.234H774.16C776.402 79.7323 798.537 63.4813 841.125 63.4813C883.154 63.4813 904.168 79.1719 904.168 110.553V173.035C904.168 191.528 905.849 204.416 909.211 212.262ZM865.502 141.934C861.019 144.736 851.492 147.538 837.483 149.78C825.715 151.461 818.15 153.982 814.507 156.784C810.585 160.147 808.343 165.19 808.343 171.354C808.343 177.238 810.304 182.001 814.227 185.364C818.15 188.726 823.473 190.407 830.198 190.407C840.845 190.407 849.531 187.605 855.975 182.001C862.42 176.398 865.502 168.272 865.502 158.185V141.934ZM957.839 12.7671V212.262H918.052V12.7671H957.839ZM1106.1 67.6842V212.262H1068.27V191.808C1057.07 208.339 1041.38 216.465 1021.2 216.465C1005.23 216.465 992.903 212.262 983.937 203.576C974.971 194.89 970.768 182.001 970.768 164.91V67.6842H1010.84V150.34C1010.84 155.944 1010.84 160.147 1011.4 163.509C1011.96 166.871 1012.8 169.953 1014.48 173.315C1015.88 176.678 1018.4 179.199 1021.76 180.881C1025.12 182.562 1029.61 183.122 1035.21 183.122C1055.95 183.122 1066.59 169.673 1066.59 142.214V67.6842H1106.1ZM1240.06 109.713L1202.79 109.993C1201.67 102.708 1199.15 97.3842 1194.67 94.5823C1190.19 91.5002 1183.74 90.0993 1175.34 90.0993C1168.33 90.0993 1162.73 91.2201 1158.8 93.7418C1154.88 96.2635 1152.92 99.9059 1152.92 104.389C1152.92 109.432 1155.16 113.075 1159.65 115.316C1164.13 117.278 1172.25 119.519 1183.74 122.041C1185.98 122.321 1187.38 122.601 1188.22 122.881C1194.95 124.002 1200.55 125.123 1204.48 126.244C1208.4 127.364 1213.44 129.046 1219.05 131.287C1224.93 133.529 1229.41 136.33 1232.49 139.132C1235.86 141.934 1238.66 145.857 1240.9 150.62C1243.42 155.664 1244.54 161.267 1244.54 167.431C1244.54 182.562 1238.66 194.61 1226.89 203.296C1215.12 212.262 1199.15 216.465 1178.42 216.465C1158.8 216.465 1142.83 212.262 1129.95 203.856C1117.34 195.45 1110.89 182.562 1110.61 165.19H1148.44C1149.84 181.441 1160.21 189.286 1179.26 189.286C1187.38 189.286 1193.83 187.885 1198.59 184.523C1203.35 181.161 1205.6 176.958 1205.6 171.354C1205.6 166.031 1203.64 162.108 1199.15 159.866C1194.95 157.625 1187.1 155.383 1175.34 152.581C1174.5 152.581 1173.65 152.301 1173.09 152.021C1171.97 151.741 1168.89 151.181 1164.41 150.06C1159.93 149.219 1156.84 148.659 1155.16 148.098C1153.48 147.538 1150.4 146.697 1146.48 145.577C1142.55 144.456 1139.47 143.615 1137.51 142.495C1135.83 141.374 1133.31 140.253 1130.23 138.572C1127.14 136.891 1124.9 135.21 1123.22 133.248C1121.82 131.567 1120.14 129.326 1118.46 126.804C1116.78 124.282 1115.38 121.48 1114.82 118.118C1114.25 115.036 1113.97 111.674 1113.97 107.751C1113.97 93.7418 1119.3 82.8144 1130.51 74.9691C1141.43 67.404 1157.12 63.4813 1177.3 63.4813C1195.23 63.4813 1210.08 67.404 1221.85 74.6889C1233.34 82.254 1239.5 94.0219 1240.06 109.713Z" fill="#2F2F2F"/>
<path d="M1292.59 0.261719C1270.93 0.261719 1253.45 17.3315 1253.45 38.4216C1253.45 59.5117 1270.96 76.5815 1292.59 76.5815C1314.23 76.5815 1331.7 59.5117 1331.7 38.4216C1331.73 17.309 1314.23 0.261719 1292.59 0.261719ZM1292.59 70.2926C1274.62 70.2926 1260.12 56.1426 1260.12 38.6462C1260.12 21.1497 1274.64 6.99978 1292.59 6.99978C1310.52 6.99978 1325.03 21.1497 1325.03 38.6462C1325.05 55.9405 1310.53 70.068 1292.59 70.2926Z" fill="#2F2F2F"/>
<path d="M1272.63 46.0508H1283.8C1284.62 51.1491 1288.35 53.4177 1293.76 53.4177C1299.08 53.4177 1302.1 51.4187 1302.1 48.3191C1302.1 44.0743 1296.34 43.6476 1290.13 42.4347C1281.95 40.8849 1273.97 38.7063 1273.97 29.0259C1273.97 19.4131 1282.15 14.8311 1292.5 14.8311C1304.48 14.8311 1311.13 20.6257 1312.04 29.5426H1301.08C1300.57 24.781 1297.46 23.0517 1292.33 23.0517C1287.63 23.0517 1284.51 24.781 1284.51 27.9928C1284.51 31.8112 1290.54 32.1479 1297.02 33.4506C1304.65 35.0004 1313.08 37.0892 1313.08 47.4658C1313.08 56.3826 1305.27 61.7505 1293.91 61.7505C1280.7 61.728 1273.33 55.4841 1272.63 46.0508Z" fill="#2F2F2F"/>
</svg>
