<svg width="79" height="77" viewBox="0 0 79 77" fill="none" xmlns="http://www.w3.org/2000/svg">
<path d="M39.5867 0.261719C17.9326 0.261719 0.453125 17.3315 0.453125 38.4216C0.453125 59.5117 17.9559 76.5815 39.5867 76.5815C61.2292 76.5815 78.6971 59.5117 78.6971 38.4216C78.7321 17.309 61.2292 0.261719 39.5867 0.261719ZM39.5867 70.2926C21.6174 70.2926 7.12309 56.1426 7.12309 38.6462C7.12309 21.1497 21.6408 6.99978 39.5867 6.99978C57.5211 6.99978 72.0272 21.1497 72.0272 38.6462C72.0505 55.9405 57.5327 70.068 39.5867 70.2926Z" fill="#2F2F2F"/>
<path d="M19.6299 46.0508H30.8009C31.6172 51.1491 35.3487 53.4177 40.7593 53.4177C46.0766 53.4177 49.0967 51.4187 49.0967 48.3191C49.0967 44.0743 43.3363 43.6476 37.1327 42.4347C28.9469 40.8849 20.9709 38.7063 20.9709 29.0259C20.9709 19.4131 29.1451 14.8311 39.4999 14.8311C51.4756 14.8311 58.1339 20.6257 59.0435 29.5426H48.0823C47.5692 24.781 44.4558 23.0517 39.325 23.0517C34.6257 23.0517 31.5123 24.781 31.5123 27.9928C31.5123 31.8112 37.5409 32.1479 44.0243 33.4506C51.6505 35.0004 60.0812 37.0892 60.0812 47.4658C60.0812 56.3826 52.2685 61.7505 40.9109 61.7505C27.6992 61.728 20.3295 55.4841 19.6299 46.0508Z" fill="#2F2F2F"/>
</svg>
